PathFileType	4	(X/Y/Z)	E:\Qualisys_Data\Carbon_Farble_Plate\Data\Amateur_Runner\S14\T2\S14T2V26_c3d.trc
DataRate	CameraRate	NumFrames	NumMarkers	Units	OrigDataRate	OrigDataStartFrame	OrigNumFrames
200.000000	200.000000	5	39	mm	200.000000	185	296
Frame#	Time	LSHO			RSHO			LICST			RICST			LASIS			LHEEL			RASIS			LTROC			RTROC			SACR			LTH1			LSK4			LTH2			LTH3			RHM5			LSK2			LTH4			RTH1			LTOE			RTH2			RTH3			RTH4			LLEP			RLEP			LSK1			LSK3			RSK1			LHM5			RSK2			LFT1			RSK3			RSK4			LLME			RLME			RTOE			RHEEL			RFT1			RFT2			LFT2			
		X1	Y1	Z1	X2	Y2	Z2	X3	Y3	Z3	X4	Y4	Z4	X5	Y5	Z5	X6	Y6	Z6	X7	Y7	Z7	X8	Y8	Z8	X9	Y9	Z9	X10	Y10	Z10	X11	Y11	Z11	X12	Y12	Z12	X13	Y13	Z13	X14	Y14	Z14	X15	Y15	Z15	X16	Y16	Z16	X17	Y17	Z17	X18	Y18	Z18	X19	Y19	Z19	X20	Y20	Z20	X21	Y21	Z21	X22	Y22	Z22	X23	Y23	Z23	X24	Y24	Z24	X25	Y25	Z25	X26	Y26	Z26	X27	Y27	Z27	X28	Y28	Z28	X29	Y29	Z29	X30	Y30	Z30	X31	Y31	Z31	X32	Y32	Z32	X33	Y33	Z33	X34	Y34	Z34	X35	Y35	Z35	X36	Y36	Z36	X37	Y37	Z37	X38	Y38	Z38	X39	Y39	Z39	

186	0.925	1011.044311523438	1420.778564453125	-546.5101318359375	1097.637573242188	1410.444213867188	-260.2128601074219	1003.924621582031	974.5783081054688	-535.2250366210938	1040.591918945312	971.1531372070312	-260.5534362792969	1049.888671875	926.920166015625	-514.581298828125	835.840576171875	377.9384765625	-441.1517333984375	1065.037109375	928.5901489257812	-280.8954772949219	934.2779541015624	854.6630859375	-561.6996459960938	917.8823852539062	855.323486328125	-226.1340179443359	881.0592041015625	969.5714721679688	-396.5907287597656	1130.454345703125	692.1282958984375	-568.9818725585938	1010.675537109375	475.748046875	-525.31689453125	1071.866088867188	644.2168579101562	-547.736328125	1198.756469726562	620.4121704101562	-551.8135375976562	722.3016357421875	58.51084518432617	-273.07763671875	1092.18212890625	530.5230712890625	-542.6792602539062	1136.55615234375	573.1008911132812	-530.3881225585938	1006.737365722656	622.8764038085938	-243.0601501464844	960.0310668945312	155.6808166503906	-493.5661926269531	932.2481689453124	640.3917236328125	-231.9425964355469	985.3923950195312	529.7060546875	-275.3148193359375	905.0557861328124	545.1144409179688	-255.8733978271484	1179.25537109375	545.6302490234375	-549.5735473632812	907.4248657226562	469.0519409179688	-266.938720703125	1138.40625	462.4993896484375	-542.06201171875	1054.190673828125	408.0343627929688	-527.197509765625	860.8257446289062	353.2983703613281	-268.8914184570312	905.8011474609376	209.4212646484375	-549.13232421875	790.7977294921875	402.04638671875	-261.0063171386719	817.662109375	353.4388732910156	-420.4864501953125	795.0607299804688	274.4142761230469	-286.03369140625	735.048828125	325.1485290527344	-277.4891052246094	886.5220336914062	350.2200317382812	-510.2066650390625	650.831787109375	169.3621063232422	-304.686767578125	798.2984008789062	45.00461196899414	-334.6266784667969	584.44140625	169.3426208496094	-361.6878356933594	585.1837768554688	136.0483245849609	-389.4739379882812	571.5067138671875	144.7848205566406	-334.7948608398438	808.7219848632812	362.5175170898438	-474.2266540527344
187	0.93	1028.52490234375	1425.128662109375	-546.4541625976562	1118.584350585938	1415.065063476562	-262.0958557128906	1024.035278320312	979.4342651367188	-535.8017578125	1062.580444335938	974.3181762695312	-261.5172424316406	1070.77734375	931.6510620117188	-515.19775390625	868.1865234375	365.0975341796875	-442.5797729492188	1086.79541015625	931.4520874023438	-281.6818542480469	956.9155883789062	860.2125854492188	-563.6596069335938	938.45263671875	859.2623291015625	-226.4674377441406	902.736572265625	973.4990844726562	-396.9651489257812	1154.760131835938	698.928955078125	-568.44677734375	1038.781860351562	472.1533203125	-525.5250854492188	1096.225952148438	650.0540161132812	-549.04931640625	1223.1962890625	627.8443603515625	-550.77783203125	725.7792358398438	59.63912200927734	-271.8414306640625	1117.637939453125	531.022705078125	-541.8327026367188	1161.183959960938	579.5602416992188	-531.0151977539062	1022.179748535156	626.027099609375	-243.6634826660156	1005.506103515625	150.0640563964844	-492.5061950683594	948.2554931640624	644.9794311523438	-231.6192016601562	998.2404174804688	532.6585083007812	-275.4649047851562	918.5966186523438	550.4899291992188	-255.1188812255859	1205.130493164062	552.0435791015625	-548.5317993164062	919.093017578125	474.3949584960938	-265.6726379394531	1167.290893554688	465.9180297851562	-541.36181640625	1085.550659179688	406.1699829101562	-526.916259765625	870.311279296875	359.3357543945312	-267.2111206054688	948.5078735351562	200.2126312255859	-548.8785400390625	800.5604248046875	408.7004699707031	-259.9923095703125	850.8613891601562	339.3844604492188	-422.0080261230469	803.7940063476562	280.8535461425781	-283.8070373535156	744.2653198242188	332.2476196289062	-275.9210510253906	921.7763671875	339.4166870117188	-509.7239379882812	659.2881469726562	175.7854461669922	-302.5825500488281	800.5858154296875	43.91230010986328	-333.315185546875	594.20703125	178.8399047851562	-359.03515625	593.0006713867188	145.6846008300781	-387.412353515625	579.9111328125	154.6954345703125	-333.0948486328125	842.6072387695312	347.6060180664062	-476.4155883789062
188	0.935	1046.401611328125	1429.307495117188	-546.5794067382812	1139.390747070312	1419.432861328125	-264.3196716308594	1045.088134765625	984.2869262695312	-536.779541015625	1085.044189453125	977.5721435546876	-262.6497497558594	1092.4189453125	936.49609375	-516.0062255859375	901.0156860351562	351.83154296875	-443.8137817382812	1108.099243164062	934.7696533203124	-283.0032043457031	979.1678466796876	865.7451171875	-565.5592041015625	959.1531982421876	863.1639404296875	-227.0971221923828	924.31689453125	977.4844970703124	-397.8211975097656	1178.69091796875	705.1985473632812	-568.1925659179688	1066.643798828125	468.2669067382812	-525.5519409179688	1120.155029296875	656.0350952148438	-550.1495971679688	1247.369873046875	634.4979858398438	-548.9721069335938	729.278564453125	61.30607604980469	-270.7035522460938	1142.501831054688	531.0159912109375	-541.174560546875	1185.849487304688	586.0865478515625	-531.89453125	1037.72607421875	629.1272583007812	-244.1876678466797	1051.300903320312	145.0574035644531	-491.4292297363281	964.400634765625	649.5205078125	-231.6897277832031	1011.388793945312	536.3856811523438	-275.5591430664062	932.1531372070312	555.7824096679688	-254.4133453369141	1230.499267578125	556.8753051757812	-547.576171875	930.7526245117188	479.7124328613281	-264.6050415039062	1195.595458984375	468.3036499023438	-540.600341796875	1116.903442382812	404.4676513671875	-525.9459228515625	879.7025146484375	365.4580993652344	-265.1993103027344	991.8633422851562	191.8531799316406	-548.9605712890625	810.7881469726562	415.6158752441406	-258.8705444335938	885.4061279296875	325.3114624023438	-423.6343688964844	812.6386108398438	287.0642700195312	-281.7181701660156	753.5927734375	339.3494567871094	-274.6671142578125	956.59814453125	329.3046875	-510.4489440917969	669.0006103515625	181.6645812988281	-300.4720153808594	804.0549926757812	43.1864013671875	-332.1996459960938	604.12255859375	188.6099548339844	-357.0566711425781	601.7446899414062	155.7428436279297	-385.0425720214844	589.114990234375	165.1650695800781	-331.0145263671875	877.5056762695312	333.6264343261719	-478.4786682128906
189	0.94	1064.088989257812	1433.526611328125	-546.5411376953125	1160.692504882812	1424.029907226562	-266.0464477539062	1066.141235351562	989.152587890625	-537.2889404296875	1107.115234375	980.8699340820312	-263.908447265625	1113.740600585938	941.1236572265624	-516.5177001953125	934.7806396484376	338.7741088867188	-444.9819030761719	1130.211303710938	937.78515625	-284.5182800292969	1001.914978027344	871.128173828125	-567.2828979492188	980.4022216796876	867.28076171875	-227.2411956787109	945.9880981445312	981.7394409179688	-398.7503662109375	1202.492919921875	711.1484985351562	-567.8267822265625	1094.84912109375	463.8449096679688	-525.8178100585938	1143.981689453125	661.2499389648438	-551.35400390625	1271.176147460938	640.5444946289062	-548.0106811523438	733.5377197265625	63.64305877685547	-269.5104064941406	1167.548095703125	529.93017578125	-540.6943969726562	1209.162353515625	591.4694213867188	-532.824951171875	1053.1298828125	632.2774047851562	-244.3844604492188	1096.58056640625	140.6842803955078	-490.279541015625	980.4371337890624	654.2127075195312	-231.689208984375	1025.076904296875	539.9373168945312	-275.5454711914062	946.4356689453124	561.15673828125	-253.8277435302734	1255.8349609375	561.1597290039062	-546.5691528320312	942.8406982421876	484.9649353027344	-263.586669921875	1223.89599609375	470.0451354980469	-540.4014282226562	1148.210327148438	402.7360229492188	-526.13916015625	889.838134765625	371.6380615234375	-263.7280883789062	1035.72216796875	183.6688079833984	-548.3877563476562	821.0181274414062	422.2203369140625	-258.2380065917969	920.4814453125	311.1395568847656	-424.7966918945312	822.9266967773438	293.7550659179688	-279.3294982910156	764.0267944335938	346.5356750488281	-273.5020751953125	992.1160888671876	319.1358032226562	-511.0845336914062	678.6819458007812	188.1048736572266	-298.3532409667969	806.8868408203125	41.68806457519531	-331.1799011230469	615.0953369140625	198.4954223632812	-354.5891723632812	610.9494018554688	166.1346435546875	-382.9344482421875	599.2139892578125	175.45849609375	-328.7409362792969	911.9390869140624	319.3592224121094	-479.9012145996094
190	0.945	1081.947509765625	1437.65576171875	-546.4812622070312	1181.196166992188	1427.9072265625	-268.0992126464844	1087.263671875	993.5020141601562	-537.9852905273438	1129.134765625	983.8860473632812	-265.2039794921875	1134.729370117188	945.4440307617188	-517.4314575195312	968.765380859375	325.8027038574219	-446.4557800292969	1151.370971679688	940.8582153320312	-285.5767517089844	1024.146850585938	876.2897338867188	-568.7491455078125	1000.878356933594	870.9365234375	-228.0416259765625	967.513427734375	985.3825073242188	-399.2950439453125	1225.976440429688	716.6283569335938	-567.537109375	1122.606689453125	458.9586181640625	-525.5523071289062	1167.4423828125	666.5188598632812	-552.67431640625	1294.589599609375	646.410400390625	-546.9900512695312	738.2962036132812	66.38717651367188	-268.2713012695312	1191.864013671875	528.6767578125	-540.655517578125	1232.56787109375	596.3231201171875	-533.937255859375	1068.696655273438	635.3934326171875	-244.1614837646484	1142.1513671875	136.7182006835938	-489.3348083496094	996.0015258789062	658.5586547851562	-230.8960571289062	1038.368774414062	543.380859375	-274.6970520019531	960.2780151367188	566.2590942382812	-253.0139465332031	1280.13427734375	565.6473999023438	-545.8955078125	955.3103637695312	490.0418090820312	-262.3523559570312	1251.3984375	471.6601867675781	-539.9345703125	1179.670654296875	400.2660217285156	-526.30615234375	900.7039794921875	377.9966735839844	-262.4341125488281	1078.76513671875	175.5946044921875	-547.9407348632812	832.3277587890625	429.1930541992188	-257.2006530761719	955.880126953125	296.9423522949219	-425.9595031738281	833.0811767578125	300.0303039550781	-277.12255859375	774.52197265625	353.0372009277344	-272.1869506835938	1027.632202148438	309.0060424804688	-511.875	689.0841064453125	195.2166748046875	-296.0375671386719	810.0591430664062	40.42007827758789	-330.6357421875	626.9774780273438	208.9252624511719	-352.0951538085938	621.1349487304688	176.7738189697266	-380.9312438964844	607.9620971679688	186.04931640625	-327.4033813476562	947.0941772460938	305.1390380859375	-481.412353515625
